<svg width="58" height="14" viewBox="0 0 58 14" fill="none" xmlns="http://www.w3.org/2000/svg">
<path d="M0.811462 0.511453H3.06286L9.85556 10.8256V0.511453H11.4912V13H9.23979L2.4471 2.5127V13H0.811462V0.511453ZM17.4718 13.1374C14.9794 13.1374 13.7332 12.3311 13.7332 10.7184V6.4987C13.7332 4.79434 14.9794 3.94216 17.4718 3.94216C19.9917 3.94216 21.2516 4.78976 21.2516 6.48495V10.7184C21.2516 11.5797 20.9034 12.1982 20.207 12.5739C19.5106 12.9496 18.5989 13.1374 17.4718 13.1374ZM17.4993 12.244C19.1395 12.244 19.9596 11.7309 19.9596 10.7046V6.45746C19.9596 5.35788 19.1349 4.80809 17.4856 4.80809C16.6884 4.80809 16.0744 4.93179 15.6438 5.1792C15.2222 5.4266 15.0115 5.85269 15.0115 6.45746V10.7046C15.0115 11.7309 15.8408 12.244 17.4993 12.244ZM23.4963 0.511453H27.9606C29.0254 0.511453 29.8721 0.620495 30.5007 0.83858C31.078 1.04384 31.4628 1.30041 31.6553 1.60829C31.8605 1.91617 31.9631 2.33951 31.9631 2.87831V4.55243C31.9631 5.05274 31.822 5.44401 31.5398 5.72624C31.2576 5.99564 30.8278 6.19448 30.2505 6.32276V6.39974C30.9304 6.51519 31.4757 6.75252 31.8862 7.11172C32.3095 7.45809 32.5212 7.89426 32.5212 8.42022V10.5177C32.5212 11.4285 32.1812 12.0699 31.5013 12.442C30.8214 12.814 29.6861 13 28.0953 13H23.4963V0.511453ZM28.0184 5.9764C28.8009 5.9764 29.359 5.86094 29.6925 5.63003C30.0389 5.38628 30.212 5.00784 30.212 4.4947V3.03225C30.212 2.5576 30.0389 2.22406 29.6925 2.03163C29.3461 1.8392 28.7688 1.74299 27.9606 1.74299H25.3629V5.9764H28.0184ZM28.0953 11.7107C29.0318 11.7107 29.6925 11.6145 30.0773 11.4221C30.4622 11.2297 30.6546 10.9025 30.6546 10.4407V8.55492C30.6546 8.22138 30.5841 7.9584 30.443 7.76597C30.3147 7.56072 30.1094 7.41319 29.8272 7.32339C29.545 7.24642 29.2948 7.20152 29.0767 7.18869C28.8586 7.16303 28.5315 7.1502 28.0953 7.1502H25.3629V11.7107H28.0953ZM39.9103 13.1924C36.421 13.1924 34.6763 12.0635 34.6763 9.8057V3.89818C34.6763 1.51208 36.421 0.319026 39.9103 0.319026C43.4381 0.319026 45.2021 1.50566 45.2021 3.87893V9.8057C45.2021 11.0116 44.7146 11.8775 43.7396 12.4035C42.7646 12.9294 41.4882 13.1924 39.9103 13.1924ZM39.9488 11.9416C42.2451 11.9416 43.3932 11.2233 43.3932 9.78646V3.84045C43.3932 2.30103 42.2387 1.53132 39.9296 1.53132C38.8135 1.53132 37.954 1.7045 37.351 2.05087C36.7609 2.39724 36.4659 2.99377 36.4659 3.84045V9.78646C36.4659 11.2233 37.6268 11.9416 39.9488 11.9416ZM50.9446 6.63065L46.538 0.511453H48.6739L52.0029 5.34138L55.3319 0.511453H57.4679L53.0613 6.63065L57.6603 13H55.5244L52.0029 7.91991L48.4815 13H46.3456L50.9446 6.63065Z" fill="black"/>
</svg>
